<svg width="375" height="812" viewBox="0 0 375 812" xmlns="http://www.w3.org/2000/svg">
<rect width="375" height="812" fill="#FFFFFF"/>

<text x="24" y="28" font-family="Helvetica" font-size="15" font-weight="bold" fill="#141413">9:41</text>
<g transform="translate(305,17)" fill="#141413">
  <rect x="0" y="6" width="3" height="6" rx="0.5"/>
  <rect x="5" y="4" width="3" height="8" rx="0.5"/>
  <rect x="10" y="1.5" width="3" height="10.5" rx="0.5"/>
  <rect x="17" y="2" width="16" height="10" rx="2.5" fill="none" stroke="#141413" stroke-width="1.2"/>
  <rect x="19" y="4" width="12" height="6" rx="1" fill="#141413"/>
</g>
<text x="24" y="96" font-family="Georgia" font-size="26" fill="#141413">Your account<tspan fill="#0F6E56">.</tspan></text>
<circle cx="333" cy="88" r="19" fill="#F4F2EC"/>
<g transform="translate(323,78) scale(0.8333333333333334)" fill="none" stroke="#141413" stroke-width="1.5" stroke-linecap="round" stroke-linejoin="round"><path d="M12 3a5 5 0 0 0-5 5v3.6c0 .6-.2 1.2-.6 1.7L5 15.5h14l-1.4-2.2a2.7 2.7 0 0 1-.6-1.7V8a5 5 0 0 0-5-5Z"/><path d="M9.5 18a2.5 2.5 0 0 0 5 0"/></g>
<circle cx="48" cy="148" r="24" fill="#F4F2EC"/>
<text x="48" y="153" font-family="Helvetica" font-size="14" font-weight="bold" fill="#141413" text-anchor="middle">AO</text>
<text x="84" y="142" font-family="Helvetica" font-size="14.5" font-weight="bold" fill="#141413">Adesina O.</text>
<text x="84" y="162" font-family="Helvetica" font-size="11.5" fill="#73726C">Ikeja, Lagos · Member since 2026</text>
<text x="78.5" y="204" font-family="Georgia" font-size="22" fill="#141413" text-anchor="middle">3</text>
<text x="78.5" y="224" font-family="Helvetica" font-size="10.5" fill="#73726C" text-anchor="middle">Orders</text>
<line x1="133.0" y1="184" x2="133.0" y2="224" stroke="#ECEAE2" stroke-width="1"/>
<text x="187.5" y="204" font-family="Georgia" font-size="22" fill="#141413" text-anchor="middle">1</text>
<text x="187.5" y="224" font-family="Helvetica" font-size="10.5" fill="#73726C" text-anchor="middle">For sale</text>
<line x1="242.0" y1="184" x2="242.0" y2="224" stroke="#ECEAE2" stroke-width="1"/>
<text x="296.5" y="204" font-family="Georgia" font-size="22" fill="#141413" text-anchor="middle">2</text>
<text x="296.5" y="224" font-family="Helvetica" font-size="10.5" fill="#73726C" text-anchor="middle">Alerts</text>
<text x="24" y="262" font-family="Helvetica" font-size="13.5" font-weight="bold" fill="#141413">Recent orders</text>
<text x="351" y="262" font-family="Helvetica" font-size="11.5" fill="#73726C" text-anchor="end">View all</text>
<rect x="24" y="278" width="64" height="64" rx="14" fill="#F4F2EC"/>
<rect x="43.84" y="285.68" width="24.32" height="48.64" rx="4.5600000000000005" fill="#DEDBD2"/>
<rect x="45.36000000000001" y="287.2" width="21.28" height="45.6" rx="3.4200000000000004" fill="#262624"/>
<rect x="51.82" y="289.48" width="8.36" height="2.47" rx="1.2160000000000002" fill="#DEDBD2"/>
<circle cx="56" cy="330.14" r="0.684" fill="#4A4A46"/>
<rect x="47.64" y="306.96" width="12.16" height="1.1400000000000001" rx="0.5700000000000001" fill="#3A3A37"/>
<rect x="47.64" y="310.76" width="7.600000000000001" height="1.1400000000000001" rx="0.5700000000000001" fill="#33332F"/>
<text x="104" y="302" font-family="Helvetica" font-size="13" font-weight="bold" fill="#141413">iPhone 12, 128GB</text>
<circle cx="109" cy="319" r="3" fill="#0F6E56"/>
<text x="119" y="323" font-family="Helvetica" font-size="11" fill="#73726C">Delivered · Aug 2</text>
<text x="351" y="302" font-family="Helvetica" font-size="12.5" font-weight="bold" fill="#141413" text-anchor="end">₦225,000</text>
<rect x="24" y="356" width="64" height="64" rx="14" fill="#F4F2EC"/>
<rect x="33.2" y="371.66" width="45.6" height="28.12" rx="2.2800000000000002" fill="#DEDBD2"/>
<rect x="34.720000000000006" y="373.18" width="42.56" height="25.080000000000002" rx="1.1400000000000001" fill="#262624"/>
<rect x="28.64" y="399.78000000000003" width="54.72" height="2.66" rx="1.33" fill="#DEDBD2"/>
<rect x="50.68" y="399.78000000000003" width="10.64" height="1.33" rx="0.665" fill="#C6C3B8"/>
<text x="104" y="380" font-family="Helvetica" font-size="13" font-weight="bold" fill="#141413">MacBook Air M1</text>
<circle cx="109" cy="397" r="3" fill="#BA7517"/>
<text x="119" y="401" font-family="Helvetica" font-size="11" fill="#73726C">In transit · Jul 28</text>
<text x="351" y="380" font-family="Helvetica" font-size="12.5" font-weight="bold" fill="#141413" text-anchor="end">₦420,000</text>
<text x="24" y="444" font-family="Helvetica" font-size="13.5" font-weight="bold" fill="#141413">Saved alerts</text>
<rect x="24" y="458" width="327" height="60" rx="16" fill="#FFFFFF" stroke="#ECEAE2" stroke-width="1"/>
<g transform="translate(42,476) scale(0.8333333333333334)" fill="none" stroke="#0F6E56" stroke-width="1.5" stroke-linecap="round" stroke-linejoin="round"><path d="M12 3a5 5 0 0 0-5 5v3.6c0 .6-.2 1.2-.6 1.7L5 15.5h14l-1.4-2.2a2.7 2.7 0 0 1-.6-1.7V8a5 5 0 0 0-5-5Z"/><path d="M9.5 18a2.5 2.5 0 0 0 5 0"/></g>
<text x="74" y="483" font-family="Helvetica" font-size="12" font-weight="bold" fill="#141413">iPhone 12 · NG used · under ₦250k</text>
<text x="74" y="501" font-family="Helvetica" font-size="10.5" fill="#73726C">We’ll notify you when one is verified</text>
<rect x="24" y="536" width="327" height="60" rx="16" fill="#141413"/>
<text x="44" y="562" font-family="Helvetica" font-size="12.5" font-weight="bold" fill="#FFFFFF">Selling: iPhone 13, 128GB</text>
<text x="44" y="580" font-family="Helvetica" font-size="10.5" fill="#B9B7AE">Listed · 3 buyers interested</text>
<circle cx="319" cy="566" r="14" fill="#FFFFFF"/>
<g transform="translate(311,558) scale(0.6666666666666666)" fill="none" stroke="#141413" stroke-width="1.5" stroke-linecap="round" stroke-linejoin="round"><path d="M7 17 17 7"/><path d="M9 7h8v8"/></g>
<rect x="0" y="734" width="375" height="78" fill="#FFFFFF"/>
<line x1="0" y1="734" x2="375" y2="734" stroke="#ECEAE2" stroke-width="1"/>
<g transform="translate(27.5,752) scale(0.8333333333333334)" fill="none" stroke="#A8A69D" stroke-width="1.5" stroke-linecap="round" stroke-linejoin="round"><path d="M4 11.5 12 4l8 7.5"/><path d="M6 10v9a1 1 0 0 0 1 1h3v-6h4v6h3a1 1 0 0 0 1-1v-9"/></g>
<text x="37.5" y="786" font-family="Helvetica" font-size="10" fill="#A8A69D" text-anchor="middle">Home</text>
<g transform="translate(102.5,752) scale(0.8333333333333334)" fill="none" stroke="#A8A69D" stroke-width="1.5" stroke-linecap="round" stroke-linejoin="round"><rect x="3" y="3" width="7.5" height="7.5" rx="1.2"/><rect x="13.5" y="3" width="7.5" height="7.5" rx="1.2"/><rect x="3" y="13.5" width="7.5" height="7.5" rx="1.2"/><rect x="13.5" y="13.5" width="7.5" height="7.5" rx="1.2"/></g>
<text x="112.5" y="786" font-family="Helvetica" font-size="10" fill="#A8A69D" text-anchor="middle">Browse</text>
<circle cx="187.5" cy="766" r="23" fill="#141413"/>
<g transform="translate(177.5,756) scale(0.8333333333333334)" fill="none" stroke="#FFFFFF" stroke-width="1.5" stroke-linecap="round" stroke-linejoin="round"><path d="M12 5v14"/><path d="M5 12h14"/></g>
<g transform="translate(252.5,752) scale(0.8333333333333334)" fill="none" stroke="#A8A69D" stroke-width="1.5" stroke-linecap="round" stroke-linejoin="round"><path d="M12 3a5 5 0 0 0-5 5v3.6c0 .6-.2 1.2-.6 1.7L5 15.5h14l-1.4-2.2a2.7 2.7 0 0 1-.6-1.7V8a5 5 0 0 0-5-5Z"/><path d="M9.5 18a2.5 2.5 0 0 0 5 0"/></g>
<text x="262.5" y="786" font-family="Helvetica" font-size="10" fill="#A8A69D" text-anchor="middle">Alerts</text>
<g transform="translate(327.5,752) scale(0.8333333333333334)" fill="none" stroke="#141413" stroke-width="1.5" stroke-linecap="round" stroke-linejoin="round"><circle cx="12" cy="8" r="3.6"/><path d="M4.5 20a7.5 7.5 0 0 1 15 0"/></g>
<text x="337.5" y="786" font-family="Helvetica" font-size="10" fill="#141413" text-anchor="middle">Account</text>
<circle cx="337.5" cy="796" r="2" fill="#0F6E56"/>
</svg>