<svg width="375" height="812" viewBox="0 0 375 812" xmlns="http://www.w3.org/2000/svg">
<rect width="375" height="812" fill="#FFFFFF"/>

<text x="24" y="28" font-family="Helvetica" font-size="15" font-weight="bold" fill="#141413">9:41</text>
<g transform="translate(305,17)" fill="#141413">
  <rect x="0" y="6" width="3" height="6" rx="0.5"/>
  <rect x="5" y="4" width="3" height="8" rx="0.5"/>
  <rect x="10" y="1.5" width="3" height="10.5" rx="0.5"/>
  <rect x="17" y="2" width="16" height="10" rx="2.5" fill="none" stroke="#141413" stroke-width="1.2"/>
  <rect x="19" y="4" width="12" height="6" rx="1" fill="#141413"/>
</g>
<circle cx="42" cy="76" r="19" fill="#F4F2EC"/>
<g transform="translate(32,66) scale(0.8333333333333334)" fill="none" stroke="#141413" stroke-width="1.5" stroke-linecap="round" stroke-linejoin="round"><path d="M19 12H5"/><path d="M11 6l-6 6 6 6"/></g>
<circle cx="333" cy="76" r="19" fill="#F4F2EC"/>
<g transform="translate(323,66) scale(0.8333333333333334)" fill="none" stroke="#141413" stroke-width="1.5" stroke-linecap="round" stroke-linejoin="round"><path d="M5 4h4l2 5-2.5 1.5a11 11 0 0 0 5 5L15 13l5 2v4a1 1 0 0 1-1 1A16 16 0 0 1 4 5a1 1 0 0 1 1-1Z"/></g>
<text x="24" y="128" font-family="Helvetica" font-size="10.5" fill="#A8A69D" font-weight="bold">ORDER #GH-10482</text>
<text x="24" y="160" font-family="Georgia" font-size="25" fill="#141413">On the way<tspan fill="#0F6E56">.</tspan></text>
<rect x="24" y="190" width="327" height="92" rx="16" fill="#F4F2EC"/>
<rect x="38" y="206" width="60" height="60" rx="13" fill="#FFFFFF"/>
<rect x="56.8" y="213.6" width="22.4" height="44.8" rx="4.199999999999999" fill="#DEDBD2"/>
<rect x="58.199999999999996" y="215.0" width="19.599999999999998" height="42.0" rx="3.1499999999999995" fill="#262624"/>
<rect x="64.15" y="217.1" width="7.699999999999999" height="2.275" rx="1.1199999999999999" fill="#DEDBD2"/>
<rect x="60.3" y="233.2" width="11.2" height="1.0499999999999998" rx="0.5249999999999999" fill="#3A3A37"/>
<rect x="60.3" y="236.7" width="7.0" height="1.0499999999999998" rx="0.5249999999999999" fill="#33332F"/>
<text x="112" y="228" font-family="Helvetica" font-size="13" fill="#141413" font-weight="bold">iPhone 12, 128GB</text>
<text x="112" y="248" font-family="Helvetica" font-size="11.5" fill="#0F6E56" font-weight="bold">Arriving today, 2–5pm</text>
<circle cx="38" cy="318" r="10" fill="#0F6E56" stroke="#0F6E56" stroke-width="1.5"/>
<g transform="translate(31.5,311.5) scale(0.5416666666666666)" fill="none" stroke="#FFFFFF" stroke-width="2.4" stroke-linecap="round" stroke-linejoin="round"><path d="M4 12.5 9.5 18 20 6"/></g>
<line x1="38" y1="330" x2="38" y2="370" stroke="#0F6E56" stroke-width="1.5"/>
<text x="62" y="319" font-family="Helvetica" font-size="12.5" fill="#141413" font-weight="bold">Order placed</text>
<text x="62" y="336" font-family="Helvetica" font-size="10.5" fill="#73726C">Aug 2, 9:14am</text>
<circle cx="38" cy="382" r="10" fill="#0F6E56" stroke="#0F6E56" stroke-width="1.5"/>
<g transform="translate(31.5,375.5) scale(0.5416666666666666)" fill="none" stroke="#FFFFFF" stroke-width="2.4" stroke-linecap="round" stroke-linejoin="round"><path d="M4 12.5 9.5 18 20 6"/></g>
<line x1="38" y1="394" x2="38" y2="434" stroke="#0F6E56" stroke-width="1.5"/>
<text x="62" y="383" font-family="Helvetica" font-size="12.5" fill="#141413" font-weight="bold">Payment confirmed</text>
<text x="62" y="400" font-family="Helvetica" font-size="10.5" fill="#73726C">Aug 2, 9:15am</text>
<circle cx="38" cy="446" r="10" fill="#0F6E56" stroke="#0F6E56" stroke-width="1.5"/>
<g transform="translate(31.5,439.5) scale(0.5416666666666666)" fill="none" stroke="#FFFFFF" stroke-width="2.4" stroke-linecap="round" stroke-linejoin="round"><path d="M4 12.5 9.5 18 20 6"/></g>
<line x1="38" y1="458" x2="38" y2="498" stroke="#0F6E56" stroke-width="1.5"/>
<text x="62" y="447" font-family="Helvetica" font-size="12.5" fill="#141413" font-weight="bold">Device sourced</text>
<text x="62" y="464" font-family="Helvetica" font-size="10.5" fill="#73726C">Aug 2, 11:40am · verified</text>
<circle cx="38" cy="510" r="10" fill="#0F6E56" stroke="#0F6E56" stroke-width="1.5"/>
<g transform="translate(31.5,503.5) scale(0.5416666666666666)" fill="none" stroke="#FFFFFF" stroke-width="2.4" stroke-linecap="round" stroke-linejoin="round"><path d="M4 12.5 9.5 18 20 6"/></g>
<line x1="38" y1="522" x2="38" y2="562" stroke="#0F6E56" stroke-width="1.5"/>
<text x="62" y="511" font-family="Helvetica" font-size="12.5" fill="#141413" font-weight="bold">Out for delivery</text>
<text x="62" y="528" font-family="Helvetica" font-size="10.5" fill="#73726C">Aug 2, 1:05pm</text>
<circle cx="38" cy="574" r="10" fill="#FFFFFF" stroke="#ECEAE2" stroke-width="1.5"/>
<text x="62" y="575" font-family="Helvetica" font-size="12.5" fill="#73726C">Delivered</text>
<text x="62" y="592" font-family="Helvetica" font-size="10.5" fill="#73726C">Expected today, 2–5pm</text>
<rect x="24" y="632" width="327" height="74" rx="16" fill="#FFFFFF" stroke="#ECEAE2" stroke-width="1"/>
<circle cx="54" cy="669" r="18" fill="#F4F2EC"/>
<text x="54" y="674" font-family="Helvetica" font-size="11.5" fill="#141413" font-weight="bold" text-anchor="middle">MO</text>
<text x="84" y="664" font-family="Helvetica" font-size="12.5" fill="#141413" font-weight="bold">Musa · your rider</text>
<text x="84" y="682" font-family="Helvetica" font-size="11" fill="#73726C">+234 802 441 9930</text>
<circle cx="323" cy="669" r="17" fill="#E4F2EC"/>
<g transform="translate(314,660) scale(0.75)" fill="none" stroke="#0F6E56" stroke-width="1.5" stroke-linecap="round" stroke-linejoin="round"><path d="M5 4h4l2 5-2.5 1.5a11 11 0 0 0 5 5L15 13l5 2v4a1 1 0 0 1-1 1A16 16 0 0 1 4 5a1 1 0 0 1 1-1Z"/></g>
<line x1="0" y1="720" x2="375" y2="720" stroke="#ECEAE2"/>
<rect x="24" y="736" width="327" height="52" rx="26.0" fill="#FFFFFF" stroke="#141413" stroke-width="1.2"/><text x="187.5" y="767.0" font-family="Helvetica" font-size="14" font-weight="bold" fill="#141413" text-anchor="middle">View receipt</text>
</svg>