<svg width="375" height="812" viewBox="0 0 375 812" xmlns="http://www.w3.org/2000/svg">
<rect width="375" height="812" fill="#FFFFFF"/>

<text x="24" y="28" font-family="Helvetica" font-size="15" font-weight="bold" fill="#141413">9:41</text>
<g transform="translate(305,17)" fill="#141413">
  <rect x="0" y="6" width="3" height="6" rx="0.5"/>
  <rect x="5" y="4" width="3" height="8" rx="0.5"/>
  <rect x="10" y="1.5" width="3" height="10.5" rx="0.5"/>
  <rect x="17" y="2" width="16" height="10" rx="2.5" fill="none" stroke="#141413" stroke-width="1.2"/>
  <rect x="19" y="4" width="12" height="6" rx="1" fill="#141413"/>
</g>
<circle cx="42" cy="76" r="19" fill="#F4F2EC"/>
<g transform="translate(32,66) scale(0.8333333333333334)" fill="none" stroke="#141413" stroke-width="1.5" stroke-linecap="round" stroke-linejoin="round"><path d="M19 12H5"/><path d="M11 6l-6 6 6 6"/></g>
<text x="24" y="138" font-family="Georgia" font-size="26" fill="#141413">New alert<tspan fill="#0F6E56">.</tspan></text>
<text x="24" y="164" font-family="Helvetica" font-size="12.5" fill="#73726C">We’ll notify you the moment a match is verified</text>
<text x="24" y="196" font-family="Helvetica" font-size="11" font-weight="bold" fill="#73726C">DEVICE</text>
<rect x="24" y="208" width="327" height="46" rx="14" fill="#FFFFFF" stroke="#ECEAE2" stroke-width="1"/>
<text x="40" y="235.5" font-family="Helvetica" font-size="13" fill="#141413">iPhone 12</text>
<g transform="translate(323,223.0) scale(0.6666666666666666)" fill="none" stroke="#A8A69D" stroke-width="1.5" stroke-linecap="round" stroke-linejoin="round"><path d="M9 5.5 16 12l-7 6.5"/></g>
<text x="24" y="268" font-family="Helvetica" font-size="11" font-weight="bold" fill="#73726C">CONDITION</text>
<rect x="24" y="282" width="45.8" height="34" rx="17" fill="#FFFFFF" stroke="#ECEAE2"/>
<text x="46.9" y="304" font-family="Helvetica" font-size="12" fill="#73726C" text-anchor="middle">Any</text>
<rect x="77.8" y="282" width="45.8" height="34" rx="17" fill="#FFFFFF" stroke="#ECEAE2"/>
<text x="100.69999999999999" y="304" font-family="Helvetica" font-size="12" fill="#73726C" text-anchor="middle">New</text>
<rect x="131.6" y="282" width="72.19999999999999" height="34" rx="17" fill="#E4F2EC" stroke="#0F6E56"/>
<text x="167.7" y="304" font-family="Helvetica" font-size="12" fill="#0F6E56" font-weight="bold" text-anchor="middle">UK used</text>
<rect x="211.79999999999998" y="282" width="72.19999999999999" height="34" rx="17" fill="#E4F2EC" stroke="#0F6E56"/>
<text x="247.89999999999998" y="304" font-family="Helvetica" font-size="12" fill="#0F6E56" font-weight="bold" text-anchor="middle">NG used</text>
<text x="24" y="340" font-family="Helvetica" font-size="11" font-weight="bold" fill="#73726C">MAXIMUM PRICE</text>
<rect x="24" y="354" width="327" height="74" rx="16" fill="#FFFFFF" stroke="#ECEAE2" stroke-width="1"/>
<text x="42" y="400" font-family="Georgia" font-size="26" fill="#141413">₦250,000</text>
<text x="333" y="400" font-family="Helvetica" font-size="11" fill="#A8A69D" text-anchor="end">Tap to edit</text>
<text x="24" y="448" font-family="Helvetica" font-size="11" font-weight="bold" fill="#73726C">NOTIFY ME BY</text>
<rect x="24" y="460" width="327" height="162" rx="16" fill="#FFFFFF" stroke="#ECEAE2" stroke-width="1"/>
<g transform="translate(40,478) scale(0.75)" fill="none" stroke="#141413" stroke-width="1.5" stroke-linecap="round" stroke-linejoin="round"><path d="M12 3a5 5 0 0 0-5 5v3.6c0 .6-.2 1.2-.6 1.7L5 15.5h14l-1.4-2.2a2.7 2.7 0 0 1-.6-1.7V8a5 5 0 0 0-5-5Z"/><path d="M9.5 18a2.5 2.5 0 0 0 5 0"/></g>
<text x="72" y="491" font-family="Helvetica" font-size="12.5" fill="#141413">Push notification</text>
<rect x="301" y="478" width="42" height="24" rx="12" fill="#0F6E56"/>
<circle cx="330" cy="490" r="9.5" fill="#FFFFFF"/>
<line x1="72" y1="514" x2="337" y2="514" stroke="#ECEAE2"/>
<g transform="translate(40,532) scale(0.75)" fill="none" stroke="#141413" stroke-width="1.5" stroke-linecap="round" stroke-linejoin="round"><rect x="3" y="5" width="18" height="14" rx="2"/><path d="M3 7l9 6 9-6"/></g>
<text x="72" y="545" font-family="Helvetica" font-size="12.5" fill="#141413">Email</text>
<rect x="301" y="532" width="42" height="24" rx="12" fill="#0F6E56"/>
<circle cx="330" cy="544" r="9.5" fill="#FFFFFF"/>
<line x1="72" y1="568" x2="337" y2="568" stroke="#ECEAE2"/>
<g transform="translate(40,586) scale(0.75)" fill="none" stroke="#141413" stroke-width="1.5" stroke-linecap="round" stroke-linejoin="round"><path d="M5 4h4l2 5-2.5 1.5a11 11 0 0 0 5 5L15 13l5 2v4a1 1 0 0 1-1 1A16 16 0 0 1 4 5a1 1 0 0 1 1-1Z"/></g>
<text x="72" y="599" font-family="Helvetica" font-size="12.5" fill="#141413">WhatsApp</text>
<rect x="301" y="586" width="42" height="24" rx="12" fill="#ECEAE2"/>
<circle cx="312" cy="598" r="9.5" fill="#FFFFFF"/>
<line x1="0" y1="720" x2="375" y2="720" stroke="#ECEAE2"/>
<rect x="24" y="736" width="327" height="52" rx="26.0" fill="#141413"/><text x="187.5" y="767.0" font-family="Helvetica" font-size="14" font-weight="bold" fill="#FFFFFF" text-anchor="middle">Create alert</text>
</svg>