<svg width="375" height="812" viewBox="0 0 375 812" xmlns="http://www.w3.org/2000/svg">
<rect width="375" height="812" fill="#FFFFFF"/>

<text x="24" y="28" font-family="Helvetica" font-size="15" font-weight="bold" fill="#141413">9:41</text>
<g transform="translate(305,17)" fill="#141413">
  <rect x="0" y="6" width="3" height="6" rx="0.5"/>
  <rect x="5" y="4" width="3" height="8" rx="0.5"/>
  <rect x="10" y="1.5" width="3" height="10.5" rx="0.5"/>
  <rect x="17" y="2" width="16" height="10" rx="2.5" fill="none" stroke="#141413" stroke-width="1.2"/>
  <rect x="19" y="4" width="12" height="6" rx="1" fill="#141413"/>
</g>
<circle cx="42" cy="76" r="19" fill="#F4F2EC"/>
<g transform="translate(32,66) scale(0.8333333333333334)" fill="none" stroke="#141413" stroke-width="1.5" stroke-linecap="round" stroke-linejoin="round"><path d="M19 12H5"/><path d="M11 6l-6 6 6 6"/></g>
<circle cx="187.5" cy="200" r="40" fill="#FAECE7"/>
<g transform="translate(173.5,186) scale(1.1666666666666667)" fill="none" stroke="#C0492A" stroke-width="2.2" stroke-linecap="round" stroke-linejoin="round"><path d="M6 6l12 12"/><path d="M18 6L6 18"/></g>
<text x="187.5" y="274" font-family="Georgia" font-size="24" fill="#141413" text-anchor="middle">Payment failed</text>
<text x="187.5" y="302" font-family="Helvetica" font-size="12.5" fill="#73726C" text-anchor="middle">Your bank declined the transaction.</text>
<text x="187.5" y="322" font-family="Helvetica" font-size="12.5" fill="#73726C" text-anchor="middle">No money has left your account.</text>
<rect x="24" y="358" width="327" height="108" rx="16" fill="#F4F2EC"/>
<text x="42" y="388" font-family="Helvetica" font-size="12" fill="#141413" font-weight="bold">Order held for 30 minutes</text>
<text x="42" y="410" font-family="Helvetica" font-size="11" fill="#73726C">We’ve reserved your iPhone 12 while you</text>
<text x="42" y="428" font-family="Helvetica" font-size="11" fill="#73726C">try again. After that it goes back on sale.</text>
<g transform="translate(42,438) scale(0.5833333333333334)" fill="none" stroke="#BA7517" stroke-width="1.5" stroke-linecap="round" stroke-linejoin="round"><circle cx="12" cy="12" r="9"/><path d="M12 7v5l3.5 2"/></g>
<text x="64" y="450" font-family="Helvetica" font-size="11" fill="#BA7517" font-weight="bold">28:14 remaining</text>
<text x="24" y="490" font-family="Helvetica" font-size="11" font-weight="bold" fill="#73726C">TRY SOMETHING ELSE</text>
<rect x="24" y="502" width="327" height="112" rx="16" fill="#FFFFFF" stroke="#ECEAE2" stroke-width="1"/>
<g transform="translate(40,521) scale(0.75)" fill="none" stroke="#141413" stroke-width="1.5" stroke-linecap="round" stroke-linejoin="round"><path d="M6 20V4l12 16V4"/><path d="M4 10h16M4 14h16"/></g>
<text x="72" y="535" font-family="Helvetica" font-size="12.5" fill="#141413">Bank transfer</text>
<g transform="translate(329,522) scale(0.625)" fill="none" stroke="#A8A69D" stroke-width="1.5" stroke-linecap="round" stroke-linejoin="round"><path d="M9 5.5 16 12l-7 6.5"/></g>
<line x1="72" y1="558" x2="337" y2="558" stroke="#ECEAE2"/>
<g transform="translate(40,577) scale(0.75)" fill="none" stroke="#141413" stroke-width="1.5" stroke-linecap="round" stroke-linejoin="round"><path d="M4 9h16v11a1 1 0 0 1-1 1H5a1 1 0 0 1-1-1Z"/><path d="M3 9l2-5h14l2 5"/><path d="M9 21v-6h6v6"/></g>
<text x="72" y="591" font-family="Helvetica" font-size="12.5" fill="#141413">Pay on delivery</text>
<g transform="translate(329,578) scale(0.625)" fill="none" stroke="#A8A69D" stroke-width="1.5" stroke-linecap="round" stroke-linejoin="round"><path d="M9 5.5 16 12l-7 6.5"/></g>
<line x1="0" y1="720" x2="375" y2="720" stroke="#ECEAE2"/>
<rect x="24" y="736" width="327" height="52" rx="26.0" fill="#141413"/><text x="187.5" y="767.0" font-family="Helvetica" font-size="14" font-weight="bold" fill="#FFFFFF" text-anchor="middle">Try card again</text>
</svg>