<svg width="375" height="812" viewBox="0 0 375 812" xmlns="http://www.w3.org/2000/svg">
<rect width="375" height="812" fill="#FFFFFF"/>

<text x="24" y="28" font-family="Helvetica" font-size="15" font-weight="bold" fill="#141413">9:41</text>
<g transform="translate(305,17)" fill="#141413">
  <rect x="0" y="6" width="3" height="6" rx="0.5"/>
  <rect x="5" y="4" width="3" height="8" rx="0.5"/>
  <rect x="10" y="1.5" width="3" height="10.5" rx="0.5"/>
  <rect x="17" y="2" width="16" height="10" rx="2.5" fill="none" stroke="#141413" stroke-width="1.2"/>
  <rect x="19" y="4" width="12" height="6" rx="1" fill="#141413"/>
</g>
<circle cx="42" cy="76" r="19" fill="#F4F2EC"/>
<g transform="translate(32,66) scale(0.8333333333333334)" fill="none" stroke="#141413" stroke-width="1.5" stroke-linecap="round" stroke-linejoin="round"><path d="M19 12H5"/><path d="M11 6l-6 6 6 6"/></g>
<rect x="24.0" y="110" width="60.6" height="3" rx="1.5" fill="#141413"/>
<rect x="90.6" y="110" width="60.6" height="3" rx="1.5" fill="#141413"/>
<rect x="157.2" y="110" width="60.6" height="3" rx="1.5" fill="#ECEAE2"/>
<rect x="223.79999999999998" y="110" width="60.6" height="3" rx="1.5" fill="#ECEAE2"/>
<rect x="290.4" y="110" width="60.6" height="3" rx="1.5" fill="#ECEAE2"/>
<text x="24" y="134" font-family="Helvetica" font-size="11" fill="#A8A69D">Step 2 of 5</text>
<text x="24" y="168" font-family="Georgia" font-size="25" fill="#141413">Condition<tspan fill="#0F6E56">.</tspan></text>
<text x="24" y="192" font-family="Helvetica" font-size="12" fill="#73726C">Be honest — we verify before payment</text>
<text x="24" y="218" font-family="Helvetica" font-size="11" font-weight="bold" fill="#73726C">SCREEN CONDITION</text>
<rect x="24" y="230" width="327" height="62" rx="16" fill="#E4F2EC" stroke="#0F6E56" stroke-width="1"/>
<circle cx="48" cy="261" r="10" fill="none" stroke="#0F6E56" stroke-width="1.5"/>
<circle cx="48" cy="261" r="5" fill="#0F6E56"/>
<text x="72" y="257" font-family="Helvetica" font-size="13" fill="#141413" font-weight="bold">Flawless</text>
<text x="72" y="275" font-family="Helvetica" font-size="11" fill="#73726C">No scratches at all</text>
<rect x="24" y="300" width="327" height="62" rx="16" fill="#FFFFFF" stroke="#ECEAE2" stroke-width="1"/>
<circle cx="48" cy="331" r="10" fill="none" stroke="#A8A69D" stroke-width="1.5"/>
<text x="72" y="327" font-family="Helvetica" font-size="13" fill="#141413" font-weight="bold">Light marks</text>
<text x="72" y="345" font-family="Helvetica" font-size="11" fill="#73726C">Visible only at an angle</text>
<rect x="24" y="370" width="327" height="62" rx="16" fill="#FFFFFF" stroke="#ECEAE2" stroke-width="1"/>
<circle cx="48" cy="401" r="10" fill="none" stroke="#A8A69D" stroke-width="1.5"/>
<text x="72" y="397" font-family="Helvetica" font-size="13" fill="#141413" font-weight="bold">Scratched</text>
<text x="72" y="415" font-family="Helvetica" font-size="11" fill="#73726C">Clearly visible scratches</text>
<rect x="24" y="440" width="327" height="62" rx="16" fill="#FFFFFF" stroke="#ECEAE2" stroke-width="1"/>
<circle cx="48" cy="471" r="10" fill="none" stroke="#A8A69D" stroke-width="1.5"/>
<text x="72" y="467" font-family="Helvetica" font-size="13" fill="#141413" font-weight="bold">Cracked</text>
<text x="72" y="485" font-family="Helvetica" font-size="11" fill="#73726C">Chips or cracks present</text>
<text x="24" y="516" font-family="Helvetica" font-size="11" font-weight="bold" fill="#73726C">BATTERY HEALTH</text>
<rect x="24" y="530" width="327" height="74" rx="16" fill="#FFFFFF" stroke="#ECEAE2" stroke-width="1"/>
<g transform="translate(42,546) scale(0.8333333333333334)" fill="none" stroke="#0F6E56" stroke-width="1.5" stroke-linecap="round" stroke-linejoin="round"><rect x="2" y="8" width="17" height="8" rx="1.5"/><path d="M21 10.5v3"/></g>
<text x="331" y="560" font-family="Helvetica" font-size="17" fill="#141413" font-weight="bold" text-anchor="end">87%</text>
<text x="72" y="560" font-family="Helvetica" font-size="12" fill="#73726C">From Settings › Battery</text>
<rect x="42" y="580" width="289" height="6" rx="3" fill="#ECEAE2"/>
<rect x="42" y="580" width="251.43" height="6" rx="3" fill="#0F6E56"/>
<line x1="0" y1="720" x2="375" y2="720" stroke="#ECEAE2"/>
<rect x="24" y="736" width="327" height="52" rx="26.0" fill="#141413"/><text x="187.5" y="767.0" font-family="Helvetica" font-size="14" font-weight="bold" fill="#FFFFFF" text-anchor="middle">Continue</text>
</svg>